<svg xmlns="http://www.w3.org/2000/svg" width="512" height="512" viewBox="0 0 512 512">
  <defs>
    <linearGradient id="bg" x1="0%" y1="0%" x2="100%" y2="100%">
      <stop offset="0%" style="stop-color:#F47D57"/>
      <stop offset="55%" style="stop-color:#F2724B"/>
      <stop offset="100%" style="stop-color:#D95534"/>
    </linearGradient>
    <linearGradient id="paper" x1="0%" y1="0%" x2="100%" y2="100%">
      <stop offset="0%" style="stop-color:#FFFDF9"/>
      <stop offset="100%" style="stop-color:#FFF4EA"/>
    </linearGradient>
    <linearGradient id="seal" x1="0%" y1="0%" x2="100%" y2="100%">
      <stop offset="0%" style="stop-color:#FFE29D"/>
      <stop offset="100%" style="stop-color:#FFC04D"/>
    </linearGradient>
  </defs>

  <rect width="512" height="512" rx="112" ry="112" fill="url(#bg)"/>
  <rect x="22" y="22" width="468" height="468" rx="98" ry="98" fill="none" stroke="rgba(255,255,255,0.20)" stroke-width="2"/>

  <g transform="translate(256,256)">
    <path d="M-86 -156 H82 C101 -156 116 -141 116 -122 V92 C116 108 103 122 86 122 H28 L0 154 L-28 122 H-86 C-103 122 -116 108 -116 92 V-122 C-116 -141 -101 -156 -82 -156 Z"
      fill="url(#paper)"/>
    <path d="M-40 -170 C-16 -196 24 -198 50 -175 C71 -156 76 -124 60 -101 C43 -77 11 -68 -16 -83 C-42 -98 -53 -135 -40 -170 Z"
      fill="rgba(255,255,255,0.12)"/>
    <rect x="-64" y="-86" width="124" height="18" rx="9" fill="#F2724B" opacity="0.92"/>
    <rect x="-64" y="-42" width="156" height="18" rx="9" fill="#F7A387" opacity="0.96"/>
    <rect x="-64" y="2" width="104" height="18" rx="9" fill="#FBD3BF" opacity="0.98"/>
    <circle cx="106" cy="-106" r="42" fill="url(#seal)"/>
    <circle cx="106" cy="-106" r="20" fill="#FFF7E8"/>
    <path d="M106 -124 V-88 M88 -106 H124" stroke="#F2724B" stroke-width="12" stroke-linecap="round"/>
  </g>
</svg>