<svg xmlns="http://www.w3.org/2000/svg" width="512" height="512" viewBox="0 0 512 512">
  <defs>
    <linearGradient id="bg" x1="0%" y1="0%" x2="100%" y2="100%">
      <stop offset="0%" style="stop-color:#F2724B"/>
      <stop offset="100%" style="stop-color:#E85D3A"/>
    </linearGradient>
    <linearGradient id="leaf" x1="0%" y1="0%" x2="100%" y2="100%">
      <stop offset="0%" style="stop-color:#FFFFFF;stop-opacity:0.95"/>
      <stop offset="100%" style="stop-color:#FFF5F0;stop-opacity:0.9"/>
    </linearGradient>
  </defs>
  <!-- Background rounded square -->
  <rect width="512" height="512" rx="112" ry="112" fill="url(#bg)"/>
  <!-- Subtle inner shadow -->
  <rect width="512" height="512" rx="112" ry="112" fill="none" stroke="rgba(0,0,0,0.08)" stroke-width="2"/>
  <!-- Leaf/Bookmark shape -->
  <g transform="translate(256,256)">
    <!-- Main leaf body -->
    <path d="M0,-140 C60,-140 110,-100 110,-20 C110,40 80,100 0,160 C-80,100 -110,40 -110,-20 C-110,-100 -60,-140 0,-140 Z"
          fill="url(#leaf)" opacity="0.95"/>
    <!-- Center vein -->
    <line x1="0" y1="-110" x2="0" y2="130" stroke="#F2724B" stroke-width="3" stroke-linecap="round" opacity="0.4"/>
    <!-- Side veins -->
    <line x1="0" y1="-60" x2="-45" y2="-20" stroke="#F2724B" stroke-width="2" stroke-linecap="round" opacity="0.25"/>
    <line x1="0" y1="-60" x2="45" y2="-20" stroke="#F2724B" stroke-width="2" stroke-linecap="round" opacity="0.25"/>
    <line x1="0" y1="-10" x2="-55" y2="30" stroke="#F2724B" stroke-width="2" stroke-linecap="round" opacity="0.25"/>
    <line x1="0" y1="-10" x2="55" y2="30" stroke="#F2724B" stroke-width="2" stroke-linecap="round" opacity="0.25"/>
    <line x1="0" y1="40" x2="-40" y2="75" stroke="#F2724B" stroke-width="2" stroke-linecap="round" opacity="0.25"/>
    <line x1="0" y1="40" x2="40" y2="75" stroke="#F2724B" stroke-width="2" stroke-linecap="round" opacity="0.25"/>
  </g>
</svg>